<?xml version="1.0" encoding="utf-8"?>
<!-- Generator: Adobe Illustrator 25.3.1, SVG Export Plug-In . SVG Version: 6.00 Build 0)  -->
<svg version="1.1" id="Warstwa_1" xmlns="http://www.w3.org/2000/svg" xmlns:xlink="http://www.w3.org/1999/xlink" x="0px" y="0px"
	 viewBox="0 0 430 430" style="enable-background:new 0 0 430 430;" xml:space="preserve">
<style type="text/css">
	.st0{fill:#08a88a;}
	.st1{fill:#4bb3fd;}
	.st2{opacity:0.5;fill:#4bb3fd;}
	.st3{fill:#8930e8;}
	.st4{fill:#ffc738;}
	.st5{fill:#646e78;}
	.st6{opacity:0.5;fill:#ffc738;}
	.st7{opacity:0.5;fill:#646e78;}
	.st8{fill:#2CA58D;}
	.st9{opacity:0.5;fill:#2CA58D;}
	.st10{fill:#EBE6EF;}
	.st11{opacity:0.5;fill:#EBE6EF;}
	.st12{fill:none;}
	.st13{fill-opacity:0;}
	.st14{fill:#F24C00;}
	.st15{fill:none;stroke:#ffc738;stroke-width:7;stroke-linecap:round;stroke-linejoin:round;stroke-miterlimit:14.8;}
</style>
<path class="st5" d="M155.8,281.03H89.2c-1.1,0-2,0.9-2,2l-0.03,92.46c0,0.53,0.21,1.04,0.59,1.41c0.38,0.38,0.88,0.59,1.41,0.59
	h66.61c1.1,0,2-0.9,2-2l0.01-92.46c0-0.53-0.21-1.04-0.59-1.41C156.84,281.24,156.33,281.03,155.8,281.03z"/>
<path class="st4" d="M248.3,207.03h-66.6c-1.1,0-2,0.9-2,2l-0.03,166.46c0,0.53,0.21,1.04,0.59,1.41c0.38,0.38,0.88,0.59,1.41,0.59
	h66.61c1.1,0,2-0.9,2-2l0.01-166.46c0-0.53-0.21-1.04-0.59-1.41C249.34,207.24,248.83,207.03,248.3,207.03z"/>
<path class="st1" d="M342.21,133.62c-0.38-0.38-0.88-0.59-1.41-0.59h-66.6c-1.1,0-2,0.9-2,2l-0.03,240.46
	c0,0.53,0.21,1.04,0.59,1.41c0.38,0.38,0.88,0.59,1.41,0.59h66.61c1.1,0,2-0.9,2-2l0.01-240.46
	C342.8,134.5,342.59,133.99,342.21,133.62z"/>
<path class="st7" d="M102.45,281.03H89.2c-1.1,0-2,0.9-2,2l-0.03,92.46c0,0.53,0.21,1.04,0.59,1.41c0.38,0.38,0.88,0.59,1.41,0.59
	h13.25L102.45,281.03z"/>
<path class="st6" d="M194.95,207.03H181.7c-1.1,0-2,0.9-2,2l-0.03,166.46c0,0.53,0.21,1.04,0.59,1.41c0.38,0.38,0.88,0.59,1.41,0.59
	h13.25L194.95,207.03z"/>
<path class="st2" d="M287.44,133.03H274.2c-1.1,0-2,0.9-2,2l-0.03,240.46c0,0.53,0.21,1.04,0.59,1.41c0.38,0.38,0.88,0.59,1.41,0.59
	h13.25L287.44,133.03z"/>
<path class="st5" d="M155.8,281.03H89.2c-1.1,0-2,0.9-2,2l-0.03,92.46c0,0.53,0.21,1.04,0.59,1.41c0.38,0.38,0.88,0.59,1.41,0.59
	h66.61c1.1,0,2-0.9,2-2l0.01-92.46c0-0.53-0.21-1.04-0.59-1.41C156.84,281.24,156.33,281.03,155.8,281.03z"/>
<path class="st4" d="M248.3,207.03h-66.6c-1.1,0-2,0.9-2,2l-0.03,166.46c0,0.53,0.21,1.04,0.59,1.41c0.38,0.38,0.88,0.59,1.41,0.59
	h66.61c1.1,0,2-0.9,2-2l0.01-166.46c0-0.53-0.21-1.04-0.59-1.41C249.34,207.24,248.83,207.03,248.3,207.03z"/>
<path class="st1" d="M342.21,133.62c-0.38-0.38-0.88-0.59-1.41-0.59h-66.6c-1.1,0-2,0.9-2,2l-0.03,240.46
	c0,0.53,0.21,1.04,0.59,1.41c0.38,0.38,0.88,0.59,1.41,0.59h66.61c1.1,0,2-0.9,2-2l0.01-240.46
	C342.8,134.5,342.59,133.99,342.21,133.62z"/>
<path class="st7" d="M102.45,281.03H89.2c-1.1,0-2,0.9-2,2l-0.03,92.46c0,0.53,0.21,1.04,0.59,1.41c0.38,0.38,0.88,0.59,1.41,0.59
	h13.25L102.45,281.03z"/>
<path class="st6" d="M194.95,207.03H181.7c-1.1,0-2,0.9-2,2l-0.03,166.46c0,0.53,0.21,1.04,0.59,1.41c0.38,0.38,0.88,0.59,1.41,0.59
	h13.25L194.95,207.03z"/>
<path class="st2" d="M287.44,133.03H274.2c-1.1,0-2,0.9-2,2l-0.03,240.46c0,0.53,0.21,1.04,0.59,1.41c0.38,0.38,0.88,0.59,1.41,0.59
	h13.25L287.44,133.03z"/>
<path class="st3" d="M340.79,378.99h-66.61c-0.93,0-1.82-0.37-2.48-1.03c-0.66-0.66-1.02-1.55-1.02-2.48l0.03-240.46
	c0-1.93,1.57-3.5,3.5-3.5h66.6c0.93,0,1.82,0.37,2.48,1.03c0.66,0.66,1.02,1.55,1.02,2.47l-0.02,240.46
	C344.29,377.42,342.72,378.99,340.79,378.99z M277.67,371.99h59.61l0.02-233.46h-59.6L277.67,371.99z M248.29,378.99h-66.61
	c-0.93,0-1.82-0.37-2.48-1.03c-0.66-0.66-1.02-1.55-1.02-2.48l0.03-166.46c0-1.93,1.57-3.5,3.5-3.5h66.6c0.93,0,1.82,0.37,2.48,1.03
	c0.66,0.66,1.02,1.55,1.02,2.48l-0.02,166.46C251.79,377.42,250.22,378.99,248.29,378.99z M185.17,371.99h59.61l0.01-159.46h-59.6
	L185.17,371.99z M155.79,378.99H89.17c-0.93,0-1.82-0.37-2.48-1.03c-0.66-0.66-1.03-1.55-1.02-2.48l0.03-92.46
	c0-1.93,1.57-3.5,3.5-3.5h66.6c0.93,0,1.82,0.37,2.48,1.03c0.66,0.66,1.02,1.55,1.02,2.48l-0.02,92.46
	C159.28,377.42,157.72,378.99,155.79,378.99z M92.67,371.99h59.61l0.01-85.46H92.7L92.67,371.99z"/>
<path class="st3" d="M374.07,378.99H55.93c-1.93,0-3.5-1.57-3.5-3.5V97.99c0-1.93,1.57-3.5,3.5-3.5s3.5,1.57,3.5,3.5v274h314.64
	c1.93,0,3.5,1.57,3.5,3.5S376,378.99,374.07,378.99z"/>
<path class="st0" d="M84.09,221.27c-1.1,0-2.18-0.51-2.86-1.48c-1.12-1.58-0.74-3.76,0.83-4.88c0.26-0.18,26.24-18.56,39.39-27.34
	c20.65-13.78,41.79-27.56,62.23-40.89c10.41-6.79,20.82-13.58,31.21-20.39l105.45-69.16l3.84,5.85l-105.45,69.16
	c-10.4,6.82-20.81,13.61-31.23,20.4c-20.43,13.32-41.55,27.09-62.17,40.85c-13.08,8.73-38.97,27.05-39.23,27.23
	C85.49,221.07,84.79,221.27,84.09,221.27z"/>
<path class="st0" d="M318.03,100.19c-0.12,0-0.25-0.01-0.37-0.02c-1.92-0.2-3.32-1.92-3.12-3.85l3.65-34.68l-34.73-3.65
	c-1.92-0.2-3.32-1.92-3.12-3.85c0.2-1.92,1.93-3.31,3.85-3.12l38.21,4.02c1.92,0.2,3.32,1.92,3.12,3.85l-4.01,38.16
	C321.32,98.86,319.8,100.19,318.03,100.19z"/>
</svg>
