<svg xmlns="http://www.w3.org/2000/svg" viewBox="0 0 430 430">
  <defs>
    <style>
      .cls-1 {
        isolation: isolate;
      }

      .cls-2 {
        fill: #7166ee;
      }

      .cls-3 {
        fill: #08a88a;
      }

      .cls-4, .cls-5 {
        fill: #4bb3fd;
      }

      .cls-5 {
        mix-blend-mode: multiply;
        opacity: 0.5;
      }
    </style>
  </defs>
  <g class="cls-1">
    <g id="Warstwa_1" data-name="Warstwa 1">
      <g>
        <path class="cls-2" d="M374.07,357.25H55.93a3.5,3.5,0,0,1-3.5-3.5V76.25a3.5,3.5,0,0,1,7,0v274H374.07a3.5,3.5,0,0,1,0,7Z"/>
        <rect class="cls-3" x="105.36" y="220.52" width="106.37" height="7" transform="translate(-113.61 188.59) rotate(-47.3)"/>
        <rect class="cls-3" x="229.05" y="180.85" width="7" height="31.76" transform="translate(-71.9 206.4) rotate(-42.05)"/>
        <rect class="cls-3" x="251.69" y="165.25" width="101.38" height="7" transform="translate(-30.14 265.41) rotate(-45.37)"/>
        <path class="cls-4" d="M207.57,157.5a18.65,18.65,0,1,0,18.65,18.65A18.68,18.68,0,0,0,207.57,157.5Z"/>
        <path class="cls-4" d="M112.78,257.88a18.65,18.65,0,1,0,18.65,18.65A18.67,18.67,0,0,0,112.78,257.88Z"/>
        <path class="cls-4" d="M349.1,100.15a18.65,18.65,0,1,0,18.65,18.65A18.67,18.67,0,0,0,349.1,100.15Z"/>
        <path class="cls-4" d="M256.6,199.61a18.65,18.65,0,1,0,18.65,18.65A18.66,18.66,0,0,0,256.6,199.61Z"/>
        <path class="cls-5" d="M213.78,187.59A18.61,18.61,0,0,1,197,160.77a18.64,18.64,0,1,0,27.27,23.55A18.53,18.53,0,0,1,213.78,187.59Z"/>
        <path class="cls-5" d="M119,288a18.61,18.61,0,0,1-16.74-26.82,18.64,18.64,0,1,0,27.27,23.55A18.55,18.55,0,0,1,119,288Z"/>
        <path class="cls-5" d="M355.31,130.24a18.61,18.61,0,0,1-16.74-26.82A18.64,18.64,0,1,0,365.84,127,18.55,18.55,0,0,1,355.31,130.24Z"/>
        <path class="cls-5" d="M262.81,229.69a18.6,18.6,0,0,1-16.74-26.81,18.64,18.64,0,1,0,27.27,23.54A18.55,18.55,0,0,1,262.81,229.69Z"/>
      </g>
    </g>
  </g>
</svg>
