<?xml version="1.0" encoding="utf-8"?>
<!-- Generator: Adobe Illustrator 26.0.2, SVG Export Plug-In . SVG Version: 6.00 Build 0)  -->
<svg version="1.1" id="Warstwa_3" xmlns="http://www.w3.org/2000/svg" xmlns:xlink="http://www.w3.org/1999/xlink" x="0px" y="0px"
	 viewBox="0 0 430 430" style="enable-background:new 0 0 430 430;" xml:space="preserve">
<style type="text/css">
	.st0{fill:#9cc2f4;}
	.st1{fill:#a39cf4;}
	.st2{fill:#c69cf4;}
	.st3{opacity:0.5;fill:#c69cf4;}
	.st4{fill:#4030e8;}
	.st5{fill:#92140C;}
	.st6{fill:#FFC738;}
	.st7{fill:#9ce5f4;}
	.st8{opacity:0.5;fill:#9ce5f4;}
	.st9{opacity:0.5;fill:#a39cf4;}
	.st10{opacity:0.5;fill:#FFC738;}
	.st11{opacity:0.5;}
	.st12{fill:#4BB3FD;}
	.st13{opacity:0.5;fill:#4BB3FD;}
	.st14{fill:#d4d1fa;}
	.st15{fill:#2CA58D;}
	.st16{opacity:0.5;fill:#2CA58D;}
	.st17{fill:#F24C00;}
	.st18{opacity:0.5;fill:#F24C00;}
	.st19{fill:none;stroke:#4030e8;stroke-width:7;stroke-linecap:round;stroke-linejoin:round;stroke-miterlimit:10;}
	.st20{opacity:0.5;fill:#92140C;}
	.st21{opacity:0.5;fill:#9cc2f4;}
	.st22{opacity:0.5;fill:#d4d1fa;}
	.st23{fill:#F28BA8;}
	.st24{opacity:0.5;fill:#F28BA8;}
	.st25{fill-opacity:0;}
</style>
<path class="st4" d="M134.68,184.57c-0.61,0-1.22-0.16-1.78-0.49l-76.34-45.26c-1.66-0.99-2.21-3.13-1.23-4.8
	c0.99-1.66,3.13-2.21,4.8-1.23l76.34,45.26c1.66,0.99,2.21,3.13,1.23,4.8C137.04,183.95,135.87,184.57,134.68,184.57z"/>
<path class="st0" d="M154.35,131.63l20.08-3.33c3.42-0.57,5.75-3.83,5.18-7.24l-5.36-32.27c-1.9-11.42-12.79-19.22-24.22-17.32
	l-5.52,0.92c-11.42,1.9-19.22,12.79-17.32,24.22l2.94,17.72C132.03,125.74,142.93,133.53,154.35,131.63z"/>
<path class="st2" d="M134.73,181.57c-2.94-17.72,9.04-34.46,26.75-37.4l0,0c17.72-2.94,34.46,9.04,37.4,26.75l12.6,75.89l0.07-0.01
	l52.57-8.48c11.88-1.91,23.2,5.74,25.85,17.48l23.78,91.91c0,0,22.41,5.59,22.24,19.53c-0.02,1.44-1.09,2.66-2.52,2.89l-47.51,7.89
	c-1.5,0.25-2.96-0.67-3.38-2.14l-27.07-94.79l-74.43,12.58c-14.9,2.52-29.01-7.55-31.49-22.45L134.73,181.57z"/>
<circle class="st7" cx="312.37" cy="124.47" r="66.32"/>
<path class="st8" d="M355.92,174.5c-11.65,10.15-26.87,16.29-43.54,16.29c-36.63,0-66.32-29.69-66.32-66.32
	c0-25,13.83-46.76,34.26-58.07c-13.96,12.16-22.79,30.08-22.79,50.05c0,36.62,29.69,66.31,66.31,66.31
	C335.48,182.76,346.41,179.77,355.92,174.5z"/>
<path class="st14" d="M172.46,80.5c0.61,1.03,0.04,2.36-1.1,2.55l-16.11,2.67c-3.7,0.61-6.19,4.23-5.55,8.09
	c0.32,1.93-0.14,3.8-1.15,5.26c-1,1.47-2.55,2.53-4.4,2.84l-6.12,1.02c-3.3,0.55-5.51,3.77-4.94,7.19l-1.92,0.32
	c-1.05,0.17-2.05-0.57-2.23-1.66l-2.19-13.18c-1.81-10.88,5.28-21.21,15.74-22.94l10.23-1.7C160.71,69.62,168.45,73.67,172.46,80.5z
	"/>
<path class="st1" d="M333.48,370.13l-47.5,7.89c-1.5,0.25-2.96-0.67-3.38-2.14l-5.54-19.42l-0.15-0.52l36.84-8.26l0.01,0.02
	c0,0,22.41,5.59,22.24,19.53C335.98,368.67,334.9,369.89,333.48,370.13z"/>
<path class="st3" d="M187.26,292.63l-6.16,1.04c-14.9,2.52-29.01-7.55-31.49-22.45l-14.88-89.65c-2.94-17.72,9.04-34.47,26.75-37.41
	c1.8-0.3,3.59-0.44,5.36-0.44c0.18,0,0.37,0,0.55,0.01c-15.37,4.67-25.27,20.14-22.57,36.42l14.88,89.65
	C161.96,283.39,173.88,292.95,187.26,292.63z"/>
<path class="st3" d="M287.15,355.05l6.21,21.74l-7.38,1.22c-1.5,0.25-2.96-0.67-3.38-2.14l-5.54-19.42l-0.15-0.52l-21.37-74.85
	l7.36-1.24c1.51-0.25,2.96,0.66,3.38,2.13l20.48,71.75l0.23,0.8L287.15,355.05z"/>
<path class="st9" d="M293.36,376.79l-7.38,1.22c-1.5,0.25-2.96-0.67-3.38-2.14l-5.54-19.42l-0.15-0.52l9.86-2.21l0.23,0.8l0.15,0.52
	L293.36,376.79z"/>
<path class="st4" d="M58.35,354.77c-1.12,0-2.21-0.53-2.89-1.53c-1.09-1.6-0.68-3.77,0.92-4.86l162.1-110.78
	c1.59-1.09,3.77-0.68,4.86,0.92c1.09,1.6,0.68,3.77-0.92,4.86L60.32,354.16C59.71,354.57,59.03,354.77,58.35,354.77z"/>
</svg>
